<?xml version="1.0" encoding="UTF-8"?>
<svg version="1.1" xmlns="http://www.w3.org/2000/svg" width="901" height="277">
<path d="M0 0 C2.51660471 1.45158391 4.57626619 3.00573234 6.7421875 4.9375 C7.43054688 5.47117187 8.11890625 6.00484375 8.828125 6.5546875 C20.56483916 16.67254453 25.61388656 34.43364164 27.5546875 49.25 C27.7421875 52.9375 27.7421875 52.9375 26.7421875 54.9375 C28.34900391 54.92009766 28.34900391 54.92009766 29.98828125 54.90234375 C31.38541493 54.89296701 32.78255049 54.88386669 34.1796875 54.875 C34.88673828 54.86662109 35.59378906 54.85824219 36.32226562 54.84960938 C38.12912309 54.84096412 39.93606353 54.88529989 41.7421875 54.9375 C43.81536441 57.01067691 43.11406463 61.31659858 43.2421875 64.1875 C43.45617631 68.88732842 43.79228515 73.32262007 44.7421875 77.9375 C44.91714952 80.37308246 45.05958072 82.81109697 45.1796875 85.25 C45.47414895 90.62438067 45.94985139 95.91307345 46.6796875 101.25 C47.64958595 108.37785553 48.18520491 115.51238355 48.6796875 122.6875 C49.43309389 133.58273841 50.49358517 144.41828009 51.70458984 155.27148438 C52.48948584 162.366703 53.09483726 169.42331137 53.4921875 176.55078125 C53.87913461 181.79270533 54.60864538 186.97980972 55.33984375 192.18359375 C55.75762488 196.08153228 55.7421875 200.01723651 55.7421875 203.9375 C8.2221875 203.9375 -39.2978125 203.9375 -88.2578125 203.9375 C-89.18414796 199.3058227 -89.05944251 195.98113335 -88.3828125 191.4375 C-87.52544944 185.2135733 -86.91062313 179.01984158 -86.47265625 172.75 C-86.25068844 169.84423955 -85.89917926 166.98007988 -85.5078125 164.09375 C-85.04257235 160.08105372 -84.80244467 156.04770541 -84.5078125 152.01953125 C-84.27055439 149.09458364 -83.90535414 146.20389824 -83.5078125 143.296875 C-83.06897159 139.1553139 -82.86932836 134.99304109 -82.65039062 130.8347168 C-82.40773673 126.48663565 -81.88568393 122.24430558 -81.2578125 117.9375 C-81.06980335 115.66833399 -80.90323922 113.39729243 -80.7578125 111.125 C-80.42616652 106.21767589 -80.02349693 101.33235079 -79.5078125 96.44140625 C-79.12401277 92.59741204 -78.83413102 88.74622926 -78.5390625 84.89453125 C-78.33951771 82.79653948 -78.07048744 80.70463975 -77.75390625 78.62109375 C-77.09427235 73.72318217 -76.91320228 68.83825715 -76.74023438 63.90234375 C-76.56187101 60.1129636 -76.40637454 58.16034306 -74.2578125 54.9375 C-72.10302734 54.59692383 -72.10302734 54.59692383 -69.46875 54.64453125 C-68.52773437 54.65419922 -67.58671875 54.66386719 -66.6171875 54.67382812 C-65.63234375 54.69896484 -64.6475 54.72410156 -63.6328125 54.75 C-62.14394531 54.77030273 -62.14394531 54.77030273 -60.625 54.79101562 C-58.16873178 54.82644257 -55.71353965 54.87583804 -53.2578125 54.9375 C-53.29003906 53.62136719 -53.32226562 52.30523437 -53.35546875 50.94921875 C-53.34919954 46.36642316 -52.76490196 42.19635341 -51.6953125 37.75 C-51.52330322 37.02530518 -51.35129395 36.30061035 -51.17407227 35.55395508 C-48.95619956 26.90094125 -45.18492636 17.71838096 -39.2578125 10.9375 C-38.5978125 10.9375 -37.9378125 10.9375 -37.2578125 10.9375 C-36.5978125 9.6175 -35.9378125 8.2975 -35.2578125 6.9375 C-34.5978125 6.9375 -33.9378125 6.9375 -33.2578125 6.9375 C-33.2578125 6.2775 -33.2578125 5.6175 -33.2578125 4.9375 C-23.52155248 -2.14341638 -11.64632559 -3.79832202 0 0 Z M-29.953125 22.07421875 C-36.92819581 32.03562227 -39.2578125 42.92726166 -39.2578125 54.9375 C-22.0978125 54.9375 -4.9378125 54.9375 12.7421875 54.9375 C12.7421875 41.31783235 9.90782767 27.85371781 0.5078125 17.48046875 C-3.68039042 13.82042416 -8.39684248 12.23133737 -13.8203125 11.375 C-20.74160732 12.50757552 -25.67415765 16.67346806 -29.953125 22.07421875 Z M-22.2578125 89.9375 C-24.87488707 94.97717439 -27.03034596 99.8464333 -28.8203125 105.25 C-31.3777653 112.74395105 -34.29777801 120.05759612 -37.3203125 127.375 C-41.84125105 138.33497098 -46.16018183 149.35979493 -50.3828125 160.4375 C-50.67052521 161.19159149 -50.95823792 161.94568298 -51.25466919 162.72262573 C-52.07210432 164.86668184 -52.88811271 167.01127184 -53.703125 169.15625 C-53.94740738 169.79877213 -54.19168976 170.44129425 -54.44337463 171.10328674 C-55.42785143 173.70263759 -56.37869805 176.30015666 -57.2578125 178.9375 C-53.2978125 178.9375 -49.3378125 178.9375 -45.2578125 178.9375 C-42.11823433 171.49221463 -39.10964372 164.02323962 -36.2734375 156.45703125 C-35.2578125 153.9375 -35.2578125 153.9375 -34.2578125 152.9375 C-31.6169504 152.76500912 -28.99964318 152.65357187 -26.35546875 152.5859375 C-25.56256943 152.56278473 -24.7696701 152.53963196 -23.95274353 152.51577759 C-22.27235464 152.46807137 -20.59189381 152.42284556 -18.91137695 152.37988281 C-16.33452534 152.31286962 -13.75815418 152.23509521 -11.18164062 152.15625 C-9.55210115 152.11132799 -7.92254416 152.06703617 -6.29296875 152.0234375 C-5.51897232 151.99953949 -4.74497589 151.97564148 -3.94752502 151.95101929 C1.51244846 151.82263048 1.51244846 151.82263048 3.7421875 152.9375 C4.61056329 154.83366981 5.38961432 156.77105579 6.125 158.72265625 C6.56972656 159.89248047 7.01445312 161.06230469 7.47265625 162.26757812 C7.93285156 163.49927734 8.39304687 164.73097656 8.8671875 166 C9.339199 167.24829086 9.81184734 168.49634112 10.28515625 169.74414062 C11.44380289 172.80627817 12.59582617 175.87074658 13.7421875 178.9375 C17.7021875 178.9375 21.6621875 178.9375 25.7421875 178.9375 C24.3006635 170.99215887 21.48473236 163.92878124 18.3671875 156.5 C17.40082126 154.16806008 16.43467193 151.83603025 15.46875 149.50390625 C14.76661377 147.81769165 14.76661377 147.81769165 14.05029297 146.09741211 C12.5939174 142.57933279 11.17716542 139.04701028 9.77001953 135.5090332 C7.66559261 130.24396698 5.51079218 124.99920649 3.3671875 119.75 C-0.21575832 110.97458659 -3.77279721 102.19120951 -7.234375 93.3671875 C-8.03860243 91.03098881 -8.03860243 91.03098881 -9.2578125 89.9375 C-11.44420703 89.86491054 -13.63281639 89.85376217 -15.8203125 89.875 C-17.01785156 89.88402344 -18.21539062 89.89304687 -19.44921875 89.90234375 C-20.83947266 89.91974609 -20.83947266 89.91974609 -22.2578125 89.9375 Z " fill="#FDFCFB" transform="translate(168.2578125,41.0625)"/>
<path d="M0 0 C1.0017627 -0.00290039 2.00352539 -0.00580078 3.03564453 -0.00878906 C9.66109861 0.18753703 14.69836755 1.5719324 20.5 4.75 C21.43070312 5.25660156 22.36140625 5.76320313 23.3203125 6.28515625 C31.130842 11.46128682 36.69416337 18.71871334 39.5 27.75 C39.125 30.0625 39.125 30.0625 38.5 31.75 C36.75559202 32.30941359 35.00414743 32.84691897 33.25 33.375 C32.27546875 33.67664063 31.3009375 33.97828125 30.296875 34.2890625 C27.5 34.75 27.5 34.75 25.25390625 34.1328125 C22.95035326 32.31664823 22.54447506 30.78622433 21.6875 28 C19.43145577 21.85361179 16.02893908 18.38761225 10.109375 15.640625 C1.45146148 12.68552877 -6.42041337 13.55880577 -14.6875 17.125 C-22.80618407 21.81579524 -26.1529778 28.26967421 -29.5 36.75 C-30.31441846 40.46489121 -30.52367578 43.95595629 -30.5 47.75 C-30.53609375 48.48347656 -30.5721875 49.21695313 -30.609375 49.97265625 C-31.02098146 61.31241432 -28.9269345 72.2474219 -22.5 81.75 C-16.67229248 87.32045727 -8.82109649 89.1327005 -1 90.25 C9.80546432 88.75600384 9.80546432 88.75600384 18.625 82.9375 C20.57944381 79.61494553 22.09095668 76.33665574 23.5 72.75 C25.95976499 66.9748996 25.95976499 66.9748996 28.2734375 66.01171875 C31.04301477 65.68617195 33.01416054 66.15958586 35.6875 66.9375 C36.56792969 67.17855469 37.44835937 67.41960937 38.35546875 67.66796875 C40.5 68.75 40.5 68.75 41.22192383 70.58984375 C41.70032186 74.30614379 39.66427555 77.34443255 38 80.5625 C37.44795898 81.64108276 37.44795898 81.64108276 36.88476562 82.74145508 C34.12332136 87.95243348 31.27954889 92.18648678 26.5 95.75 C25.89671875 96.21535156 25.2934375 96.68070312 24.671875 97.16015625 C15.06810444 103.85546784 2.18110847 105.87179656 -9.20922852 103.9453125 C-22.40615137 101.39159474 -31.83928226 95.51867356 -39.875 84.5 C-44.77697151 76.55686203 -47.14535005 67.02764278 -47.5 57.75 C-47.56316406 56.55632812 -47.62632812 55.36265625 -47.69140625 54.1328125 C-48.24287896 39.41908954 -44.80175271 25.31639317 -34.91015625 13.91796875 C-33.5 12.75 -33.5 12.75 -31.5 12.75 C-31.31695312 12.17765625 -31.13390625 11.6053125 -30.9453125 11.015625 C-24.930661 1.58725237 -10.04197831 0.0030989 0 0 Z " fill="#FCFAF6" transform="translate(303.5,109.25)"/>
<path d="M0 0 C0.77214844 0.10183594 1.54429687 0.20367187 2.33984375 0.30859375 C9.1831272 1.44329203 13.80106641 4.7386482 18.6015625 9.6328125 C22.41066372 16.08062072 22.30074292 23.97164221 22.34375 31.2578125 C22.3583728 32.20510223 22.37299561 33.15239197 22.38806152 34.12838745 C22.44975965 38.14128787 22.48987427 42.154332 22.53173828 46.16748047 C22.5656111 49.11441584 22.61067017 52.06103863 22.65625 55.0078125 C22.66416565 56.3549382 22.66416565 56.3549382 22.67224121 57.72927856 C22.68565552 58.58061371 22.69906982 59.43194885 22.71289062 60.30908203 C22.72382751 61.41752975 22.72382751 61.41752975 22.73498535 62.54837036 C23.01749409 65.81115195 23.01749409 65.81115195 25 72 C20.05 72 15.1 72 10 72 C9.01 69.69 8.02 67.38 7 65 C6.27039063 65.49371094 5.54078125 65.98742187 4.7890625 66.49609375 C-4.39261209 72.12978791 -13.19710067 74.18950317 -24 73 C-31.05812407 71.15040506 -36.00235219 67.02442729 -40 61 C-42.33516958 56.86038121 -42.56975324 52.66485467 -42 48 C-39.65717499 40.8482184 -35.71989724 35.30311801 -28.95703125 31.87207031 C-22.33823628 28.92267715 -14.86257137 28.33608021 -7.75 27.4375 C-5.80702895 27.18823727 -3.86430838 26.93701231 -1.921875 26.68359375 C-1.07206055 26.57587646 -0.22224609 26.46815918 0.65332031 26.35717773 C2.81847373 26.02762931 4.88717643 25.57087688 7 25 C5.26217761 19.51213982 4.15209813 16.06672508 -1 13 C-6.75517463 10.86236371 -13.68191241 12.27023169 -19.375 14.0625 C-23.11206735 16.82081161 -24.18855473 19.75007071 -26 24 C-30.29 23.67 -34.58 23.34 -39 23 C-39 15.48528597 -36.57500035 11.70939886 -31.44140625 6.3828125 C-22.90705162 -1.10968585 -10.74222711 -1.82281613 0 0 Z M1.41015625 37.9140625 C-3.65300796 39.52638741 -8.83490945 40.04743716 -14.09960938 40.6796875 C-19.10847865 41.3776772 -22.40509874 42.14882856 -26 46 C-27.13194238 49.89105194 -27.42938174 52.0056423 -25.8125 55.75 C-22.99309355 59.24995284 -21.16942045 60.70764489 -16.75 61.8125 C-9.24975669 62.18751217 -2.6719041 59.93154494 3 55 C7.37126074 49.48680878 7.50123991 43.79458547 7 37 C4.01375917 36.83358994 4.01375917 36.83358994 1.41015625 37.9140625 Z " fill="#FCFAF6" transform="translate(779,139)"/>
<path d="M0 0 C6.91352008 6.80018368 6.80130968 13.96133186 6.87890625 23.0625 C6.90698109 24.91146709 6.93564559 26.76042531 6.96484375 28.609375 C7.00597991 31.49674161 7.0429076 34.3839436 7.06933594 37.27148438 C7.09718147 40.07716227 7.14305039 42.88211009 7.19140625 45.6875 C7.19465912 46.53576355 7.19791199 47.3840271 7.20126343 48.25799561 C7.32619719 54.44757094 8.6366096 59.80353315 10.66796875 65.640625 C5.66929821 68.32827546 1.11223289 68.24333705 -4.33203125 66.640625 C-6.53914769 64.39591777 -7.18430276 62.64658057 -8.33203125 59.640625 C-9.34523438 60.27291016 -9.34523438 60.27291016 -10.37890625 60.91796875 C-11.2709375 61.46582031 -12.16296875 62.01367188 -13.08203125 62.578125 C-13.96375 63.12339844 -14.84546875 63.66867188 -15.75390625 64.23046875 C-20.76140964 66.96942136 -25.56187374 66.85434453 -31.14453125 66.890625 C-31.92634766 66.91125 -32.70816406 66.931875 -33.51367188 66.953125 C-41.73467903 67.00806907 -47.34840398 64.48826074 -53.33203125 58.640625 C-57.29189663 53.22880898 -57.09476714 47.08054276 -56.33203125 40.640625 C-54.57937576 34.97579206 -50.24552364 30.74198534 -45.33203125 27.640625 C-37.04013353 23.5567619 -27.87843819 22.71063223 -18.81030273 21.67895508 C-17.88805908 21.57091553 -16.96581543 21.46287598 -16.015625 21.3515625 C-15.18603271 21.26181152 -14.35644043 21.17206055 -13.50170898 21.07958984 C-11.05001592 20.72611227 -11.05001592 20.72611227 -8.33203125 18.640625 C-9.94911806 12.9685626 -9.94911806 12.9685626 -13.70703125 8.703125 C-18.54435235 6.7451617 -22.24793768 6.531775 -27.39453125 7.390625 C-28.41675781 7.55046875 -29.43898438 7.7103125 -30.4921875 7.875 C-33.48899194 8.68294177 -35.09817685 9.50784998 -37.33203125 11.640625 C-38.33688008 13.97187429 -39.33725372 16.30506037 -40.33203125 18.640625 C-43.71477391 19.76820589 -45.09981348 19.45812762 -48.51953125 18.703125 C-49.42058594 18.50847656 -50.32164062 18.31382812 -51.25 18.11328125 C-51.93707031 17.95730469 -52.62414062 17.80132812 -53.33203125 17.640625 C-54.11550552 15.35125213 -54.46057737 14.05297423 -53.73046875 11.7109375 C-49.42951097 3.53583455 -45.26717581 -1.49467216 -36.33203125 -4.359375 C-24.85572192 -7.63832052 -9.73224606 -7.75567771 0 0 Z M-16.59765625 33.0390625 C-19.70405008 33.72246914 -22.80570389 34.14971875 -25.95703125 34.578125 C-34.22909749 35.65378875 -34.22909749 35.65378875 -40.76953125 40.390625 C-41.59664189 43.69906754 -41.74972032 46.23944259 -41.33203125 49.640625 C-38.75433931 53.38243587 -36.24700445 54.91946557 -31.95703125 56.078125 C-25.39686908 57.231321 -19.95972685 54.94383764 -14.33203125 51.640625 C-9.58929733 47.86799574 -8.11537531 44.46461776 -7.33203125 38.640625 C-7.16299235 35.30668061 -7.16299235 35.30668061 -7.33203125 32.640625 C-10.90446963 31.44981221 -13.01985532 32.16215051 -16.59765625 33.0390625 Z " fill="#FCFAF7" transform="translate(409.33203125,144.359375)"/>
<path d="M0 0 C8.24849287 9.2476061 6.26405292 22.47480303 6.07421875 34.0546875 C6.0206154 37.33853075 5.98085305 40.62212959 5.94921875 43.90625 C5.93262207 44.64291901 5.91602539 45.37958801 5.89892578 46.13858032 C5.85136906 51.23432607 6.68959556 55.52253572 8.07421875 60.4296875 C8.42087432 62.09363425 8.76098847 63.75912601 9.07421875 65.4296875 C4.01632073 66.56771456 0.09359905 66.58167642 -4.92578125 65.4296875 C-6.86328125 62.9921875 -6.86328125 62.9921875 -7.92578125 60.4296875 C-8.25578125 59.7696875 -8.58578125 59.1096875 -8.92578125 58.4296875 C-9.68503906 58.85121094 -10.44429687 59.27273437 -11.2265625 59.70703125 C-12.71736328 60.52880859 -12.71736328 60.52880859 -14.23828125 61.3671875 C-15.22441406 61.91246094 -16.21054687 62.45773438 -17.2265625 63.01953125 C-22.29066665 65.66517756 -26.53380142 65.67834906 -32.11328125 65.7421875 C-33.35174805 65.78569336 -33.35174805 65.78569336 -34.61523438 65.83007812 C-41.54248309 65.90104285 -46.66904369 64.24003825 -51.94921875 59.68359375 C-56.02316981 54.58526772 -58.19869939 51.19827783 -57.73828125 44.4921875 C-56.83539851 37.63433657 -54.19540358 32.74831335 -49.15625 28.03125 C-39.57003556 21.14797869 -25.30218673 21.05487296 -13.96606445 19.75512695 C-11.86574788 19.52498098 -11.86574788 19.52498098 -9.92578125 18.4296875 C-10.67583082 12.36238696 -10.67583082 12.36238696 -13.92578125 7.4296875 C-21.01460549 5.06674609 -26.9674986 4.93817498 -34.015625 7.4453125 C-37.49411199 9.23790702 -38.73015034 10.81834091 -39.92578125 14.5546875 C-40.25578125 15.5034375 -40.58578125 16.4521875 -40.92578125 17.4296875 C-44.27806961 18.54711695 -45.65707793 18.27696255 -49.05078125 17.5546875 C-49.94023437 17.37164062 -50.8296875 17.18859375 -51.74609375 17 C-53.92578125 16.4296875 -53.92578125 16.4296875 -54.92578125 15.4296875 C-55.40547555 10.32748452 -53.70452099 7.68422473 -50.80078125 3.64453125 C-44.53348295 -3.75871487 -36.48901908 -6.40961974 -26.97998047 -7.44970703 C-17.07067825 -8.03149872 -7.82033092 -6.37682156 0 0 Z M-13.94921875 31.34765625 C-16.82266361 32.19510672 -19.61913249 32.72064589 -22.58984375 33.10546875 C-23.80800781 33.26499023 -23.80800781 33.26499023 -25.05078125 33.42773438 C-26.72373442 33.63816052 -28.39831758 33.83599377 -30.07421875 34.02148438 C-34.32909646 34.60077107 -36.49669711 35.09052785 -39.9453125 37.81640625 C-42.47604694 41.15577774 -43.00044718 43.24839525 -42.92578125 47.4296875 C-40.69661953 51.69417078 -37.65619421 53.59520858 -33.203125 55.0546875 C-26.17524694 56.21193672 -19.58918241 53.35939442 -13.92578125 49.4296875 C-9.76191281 45.26581906 -8.81090107 39.70988534 -8.80078125 33.9921875 C-8.84203125 32.8165625 -8.88328125 31.6409375 -8.92578125 30.4296875 C-11.13344542 30.33284682 -11.13344542 30.33284682 -13.94921875 31.34765625 Z " fill="#FCF8F4" transform="translate(560.92578125,145.5703125)"/>
<path d="M0 0 C4.29 0 8.58 0 13 0 C14.47905238 2.95810476 14.12190903 5.9547155 14.09765625 9.1953125 C14.0962413 9.90275604 14.09482635 10.61019958 14.09336853 11.33908081 C14.087766 13.60109669 14.07521318 15.86301398 14.0625 18.125 C14.05748532 19.65755065 14.05292236 21.19010286 14.04882812 22.72265625 C14.03779577 26.48180888 14.02052952 30.24088772 14 34 C14.61488281 33.57702637 15.22976563 33.15405273 15.86328125 32.71826172 C16.67152344 32.16928223 17.47976563 31.62030273 18.3125 31.0546875 C19.11300781 30.50796387 19.91351562 29.96124023 20.73828125 29.39794922 C23.58242996 27.64000497 25.66185537 27.13908936 29 27 C30.01513672 26.94392578 30.01513672 26.94392578 31.05078125 26.88671875 C38.76395894 26.63360929 45.31063625 27.21266942 51.375 32.3125 C60.91842434 41.51441015 59.6416764 54.52548009 60 67 C60.08233573 71.79180333 60.11439721 76.58253759 60.125 81.375 C60.13188843 83.13118652 60.13188843 83.13118652 60.13891602 84.92285156 C60.13690186 86.02854492 60.1348877 87.13423828 60.1328125 88.2734375 C60.13168457 89.25747559 60.13055664 90.24151367 60.12939453 91.25537109 C60.00305913 93.93511181 59.59933658 96.38898752 59 99 C56.68756208 99.02685412 54.3750373 99.04632841 52.0625 99.0625 C50.77472656 99.07410156 49.48695313 99.08570313 48.16015625 99.09765625 C45 99 45 99 44 98 C43.92251017 96.52701968 43.91411466 95.05032148 43.93408203 93.57543945 C43.94871994 92.16310783 43.94871994 92.16310783 43.96365356 90.72224426 C43.97822601 89.69628647 43.99279846 88.67032867 44.0078125 87.61328125 C44.02533857 85.45638499 44.0422459 83.29948363 44.05859375 81.14257812 C44.08950271 77.73008225 44.12492731 74.31783915 44.17138672 70.90551758 C44.21381615 67.6205737 44.23720065 64.33592489 44.2578125 61.05078125 C44.27643341 60.03494461 44.29505432 59.01910797 44.3142395 57.9724884 C44.33410335 52.46745186 43.94238073 48.82699544 41 44 C41 43.34 41 42.68 41 42 C31.22732451 39.36814243 31.22732451 39.36814243 21.8125 42.0625 C17.68707488 44.82590499 16.47399243 47.31790639 15 52 C14.67 52.99 14.34 53.98 14 55 C13.91873168 56.42204259 13.89245403 57.84764409 13.90234375 59.27197266 C13.90729858 60.55812973 13.90729858 60.55812973 13.91235352 61.87026978 C13.92065186 62.79222137 13.9289502 63.71417297 13.9375 64.6640625 C13.94128662 65.61187592 13.94507324 66.55968933 13.94897461 67.53622437 C13.96120334 70.56586209 13.9798411 73.59540527 14 76.625 C14.0264717 80.61718477 14.04651829 84.60932355 14.0625 88.6015625 C14.07079834 89.52756256 14.07909668 90.45356262 14.08764648 91.40762329 C14.09260132 92.68432388 14.09260132 92.68432388 14.09765625 93.98681641 C14.10289307 94.73943756 14.10812988 95.49205872 14.11352539 96.26748657 C14 98 14 98 13 99 C10.64686445 99.07271741 8.29166332 99.08370868 5.9375 99.0625 C4.00197266 99.04896484 4.00197266 99.04896484 2.02734375 99.03515625 C1.02832031 99.02355469 0.02929688 99.01195312 -1 99 C-1.02314316 86.53497047 -1.04092519 74.06994603 -1.05181217 61.60489941 C-1.05703666 55.81723969 -1.06412649 50.02959464 -1.07543945 44.24194336 C-1.08628368 38.6593289 -1.09228011 33.07672857 -1.09487724 27.49410439 C-1.09672871 25.36140025 -1.10034402 23.2286969 -1.10573006 21.09599876 C-1.11296081 18.11500739 -1.11399007 15.13407486 -1.11352539 12.15307617 C-1.11712067 11.2661911 -1.12071594 10.37930603 -1.12442017 9.46554565 C-1.1230455 8.65366287 -1.12167084 7.84178009 -1.12025452 7.0052948 C-1.12117631 6.30012317 -1.1220981 5.59495153 -1.12304783 4.86841106 C-1 3 -1 3 0 0 Z " fill="#FCF9F5" transform="translate(666,112)"/>
<path d="M0 0 C1.08396057 0.01419228 1.08396057 0.01419228 2.18981934 0.02867126 C4.5599209 0.06214052 6.92947636 0.11031095 9.29931641 0.15869141 C10.94982509 0.18488011 12.60034865 0.21014537 14.25088501 0.23452759 C18.58126768 0.30096725 22.91133473 0.37990513 27.24145508 0.46148682 C31.66556749 0.54261382 36.08986424 0.61186491 40.51416016 0.68212891 C49.18495684 0.82157731 57.85545607 0.97423573 66.52587891 1.13525391 C66.72054223 2.92615644 66.90639104 4.71801896 67.08837891 6.51025391 C67.245 8.00685547 67.245 8.00685547 67.40478516 9.53369141 C67.52587891 12.13525391 67.52587891 12.13525391 66.52587891 14.13525391 C51.18087891 14.63025391 51.18087891 14.63025391 35.52587891 15.13525391 C35.19587891 43.18525391 34.86587891 71.23525391 34.52587891 100.13525391 C29.57587891 100.13525391 24.62587891 100.13525391 19.52587891 100.13525391 C18.31442382 96.50088866 18.38618473 93.17383606 18.39648438 89.39086914 C18.39473206 88.60360443 18.39297974 87.81633972 18.39117432 87.00521851 C18.38677082 84.40140584 18.38968824 81.79766102 18.39306641 79.19384766 C18.392393 77.38688646 18.39142267 75.57992536 18.39016724 73.77296448 C18.38869236 69.98592262 18.39083836 66.19890435 18.39550781 62.41186523 C18.40120905 57.55033971 18.39792227 52.68886935 18.39193535 47.82734585 C18.38832757 44.0965381 18.38946926 40.36574351 18.39206314 36.63493538 C18.3927316 34.84191952 18.39190682 33.04890247 18.38958359 31.25588799 C18.38705308 28.75397436 18.39090313 26.25215102 18.39648438 23.75024414 C18.39446014 23.00473801 18.39243591 22.25923187 18.39035034 21.49113464 C18.41161368 16.36378436 18.41161368 16.36378436 19.52587891 14.13525391 C4.18087891 14.63025391 4.18087891 14.63025391 -11.47412109 15.13525391 C-13.3459648 11.39156649 -13.71411877 10.29517481 -13.59912109 6.38525391 C-13.58107422 5.58603516 -13.56302734 4.78681641 -13.54443359 3.96337891 C-13.52123047 3.36009766 -13.49802734 2.75681641 -13.47412109 2.13525391 C-8.80673399 0.30810263 -4.99733152 -0.08527869 0 0 Z " fill="#FDF9F5" transform="translate(589.47412109375,110.86474609375)"/>
<path d="M0 0 C2.07662663 3.06816886 1.74233439 6.24177889 1.69854736 9.81910706 C1.70161392 11.01463448 1.70161392 11.01463448 1.70474243 12.23431396 C1.70775245 14.87080266 1.68926802 17.50666723 1.67022705 20.14308167 C1.66716989 21.9724614 1.66529344 23.80184345 1.66455078 25.63122559 C1.65994644 29.4654277 1.64551469 33.29941994 1.62335205 37.13356018 C1.59504966 42.05563134 1.58413869 46.97753724 1.57966995 51.89968204 C1.5755192 55.67682559 1.56570492 59.45393552 1.55379486 63.23106194 C1.54808615 65.04640368 1.54332943 66.86174867 1.53952789 68.67709541 C1.53267572 71.21016789 1.51904876 73.74310794 1.50323486 76.27613831 C1.502117 77.03099518 1.50099915 77.78585205 1.49984741 78.56358337 C1.45679616 83.7535372 1.45679616 83.7535372 0.34210205 85.98292542 C1.19107056 85.87681946 1.19107056 85.87681946 2.05718994 85.76856995 C9.31050581 84.94437889 16.48493249 84.83348766 23.77960205 84.85792542 C24.93009033 84.85405823 26.08057861 84.85019104 27.26593018 84.84620667 C34.34635663 84.85422981 41.30458901 85.20107846 48.34210205 85.98292542 C50.28978338 95.08756275 50.28978338 95.08756275 48.34210205 98.98292542 C40.42333458 99.13664458 32.50449134 99.28482606 24.58548927 99.42588902 C20.90859926 99.4915614 17.23176544 99.55915909 13.55499268 99.63111877 C10.0083862 99.7004607 6.46172136 99.76479494 2.91495895 99.82562065 C1.56011009 99.84974327 0.20529242 99.87568689 -1.14948654 99.90345955 C-3.04331238 99.94197501 -4.93727681 99.9734844 -6.83123779 100.00465393 C-8.45006363 100.03463219 -8.45006363 100.03463219 -10.10159302 100.06521606 C-12.65789795 99.98292542 -12.65789795 99.98292542 -14.65789795 98.98292542 C-14.68101916 86.22258672 -14.6988119 73.46225296 -14.70971012 60.70189762 C-14.71493944 54.77741827 -14.72203796 48.85295319 -14.7333374 42.92848206 C-14.74416456 37.21619971 -14.75017442 31.50393114 -14.75277519 25.79163933 C-14.75462975 23.60704265 -14.75825095 21.42244676 -14.76362801 19.23785591 C-14.77083616 16.18940192 -14.77188899 13.14100563 -14.77142334 10.09254456 C-14.77501862 9.17976746 -14.77861389 8.26699036 -14.78231812 7.32655334 C-14.77195011 1.09697758 -14.77195011 1.09697758 -13.65789795 -0.01707458 C-11.70883108 -0.33125253 -9.74718611 -0.56923261 -7.78289795 -0.76707458 C-6.71297607 -0.88566833 -5.6430542 -1.00426208 -4.54071045 -1.12644958 C-1.65789795 -1.01707458 -1.65789795 -1.01707458 0 0 Z " fill="#FDF8F3" transform="translate(447.65789794921875,112.01707458496094)"/>
<path d="M0 0 C0.99 0 1.98 0 3 0 C3.15855469 0.65484375 3.31710938 1.3096875 3.48046875 1.984375 C5.05246101 8.13338342 7.08651175 13.83931997 9.59375 19.6640625 C11.25279732 23.59969141 12.79844706 27.56926975 14.3125 31.5625 C14.71239136 32.5992688 14.71239136 32.5992688 15.12036133 33.65698242 C16.22313358 36.58405817 17 38.84448753 17 42 C7.1 42 -2.8 42 -13 42 C-14 40 -14 40 -12.99609375 36.8671875 C-12.48395636 35.53359531 -11.96383889 34.20305128 -11.4375 32.875 C-10.8788525 31.42449987 -10.32026036 29.97397841 -9.76171875 28.5234375 C-9.47087402 27.77674805 -9.1800293 27.03005859 -8.88037109 26.26074219 C-7.48612415 22.68039645 -6.11419609 19.09188334 -4.75 15.5 C-4.50435303 14.86690918 -4.25870605 14.23381836 -4.00561523 13.58154297 C-2.30240252 9.10496253 -1.0913205 4.65355533 0 0 Z " fill="#FCFCF9" transform="translate(151,142)"/>
<path d="M0 0 C-1.58015169 1.58015169 -3.4557173 1.54099969 -5.625 1.9375 C-9.84137333 2.74321502 -13.89514451 3.75069616 -18 5 C-18.33 6.98 -18.66 8.96 -19 11 C-14.34462607 11.83796731 -10.62921525 12.0161692 -6 11 C-7 13 -7 13 -8.921875 13.8671875 C-11.49604416 15.27040001 -12.05760233 16.48469088 -13.25 19.125 C-13.8275 20.40375 -14.405 21.6825 -15 23 C-19.29 22.67 -23.58 22.34 -28 22 C-28 14.48528597 -25.57500035 10.70939886 -20.44140625 5.3828125 C-14.9564158 0.56741829 -7.23198756 -2.60351552 0 0 Z " fill="#FDF3EB" transform="translate(768,140)"/>
<path d="M0 0 C2.68119456 2.41520304 3.9304007 4.03335999 4.5 7.625 C4.12875 7.150625 3.7575 6.67625 3.375 6.1875 C0.87353038 4.10294198 -1.31593418 3.97878509 -4.5 3.625 C-4.17 2.305 -3.84 0.985 -3.5 -0.375 C-8.31463319 -2.88655092 -12.90150691 -2.6381849 -18.1875 -2.5625 C-19.05439453 -2.56185547 -19.92128906 -2.56121094 -20.81445312 -2.56054688 C-25.30941761 -2.67476426 -25.30941761 -2.67476426 -29.5 -1.375 C-29.83 -0.385 -30.16 0.605 -30.5 1.625 C-29.51 1.955 -28.52 2.285 -27.5 2.625 C-28.49 4.11 -28.49 4.11 -29.5 5.625 C-28.18 6.285 -26.86 6.945 -25.5 7.625 C-26.31404297 8.11419922 -26.31404297 8.11419922 -27.14453125 8.61328125 C-27.85996094 9.05027344 -28.57539062 9.48726562 -29.3125 9.9375 C-30.37404297 10.58138672 -30.37404297 10.58138672 -31.45703125 11.23828125 C-33.38960231 12.55006467 -34.91410612 13.91903845 -36.5 15.625 C-35.95276317 12.25037285 -35.4451 10.54265 -33.5 7.625 C-33.13837971 6.29905895 -32.80271961 4.96561543 -32.5 3.625 C-32.17 2.965 -31.84 2.305 -31.5 1.625 C-32.16 1.625 -32.82 1.625 -33.5 1.625 C-33.83 2.285 -34.16 2.945 -34.5 3.625 C-35.16 3.625 -35.82 3.625 -36.5 3.625 C-34.98805186 -0.60845479 -32.34325085 -2.23164857 -28.5 -4.375 C-19.02775549 -6.90093187 -7.69242637 -6.40349932 0 0 Z " fill="#FDEBE0" transform="translate(717.5,144.375)"/>
<path d="M0 0 C1.67004829 0.31595508 3.33637583 0.65179959 5 1 C6.32 1 7.64 1 9 1 C12 6.75 12 6.75 12 9 C15.3 8.67 18.6 8.34 22 8 C22 6.35 22 4.7 22 3 C24 5 24 5 25 10 C20.05 10 15.1 10 10 10 C9.01 7.69 8.02 5.38 7 3 C6.27039063 3.49371094 5.54078125 3.98742187 4.7890625 4.49609375 C-1.97569546 8.64681561 -7.51881407 10.67883613 -15.5 11.0625 C-16.64734619 11.11845337 -16.64734619 11.11845337 -17.81787109 11.17553711 C-22.00052492 11.26457882 -25.25223244 10.89619192 -29 9 C-23.3803482 7.12678273 -18.51257359 6.93761168 -12.625 7.4375 C-10.75714844 7.59025391 -10.75714844 7.59025391 -8.8515625 7.74609375 C-7.44003906 7.87177734 -7.44003906 7.87177734 -6 8 C-5.67 7.01 -5.34 6.02 -5 5 C-3.35 5 -1.7 5 0 5 C-0.185625 4.360625 -0.37125 3.72125 -0.5625 3.0625 C-0.706875 2.381875 -0.85125 1.70125 -1 1 C-0.67 0.67 -0.34 0.34 0 0 Z " fill="#FEEEE4" transform="translate(779,201)"/>
<path d="M0 0 C0.99 0 1.98 0 3 0 C3.19335938 0.71285156 3.38671875 1.42570313 3.5859375 2.16015625 C5.02412775 7.45013328 6.47852632 12.73336033 8 18 C5 16 5 16 4 13 C3.566875 13.639375 3.13375 14.27875 2.6875 14.9375 C1 17 1 17 -2 18 C-2.33 18.99 -2.66 19.98 -3 21 C-3.33 21.99 -3.66 22.98 -4 24 C-4.99 24.33 -5.98 24.66 -7 25 C-7.33 24.34 -7.66 23.68 -8 23 C-7.13697719 20.78206084 -6.18320186 18.59912909 -5.1875 16.4375 C-2.74494834 11.00509713 -1.013016 5.8754928 0 0 Z " fill="#FDFAF9" transform="translate(151,142)"/>
<path d="M0 0 C0.33 0 0.66 0 1 0 C2.07052897 7.1478396 1.80409227 13.72366766 0.9609375 20.8984375 C1.00571737 24.45395907 1.72343542 25.39324666 4 28 C4.1875 30.75 4.1875 30.75 4 33 C2.68 32.34 1.36 31.68 0 31 C-0.94324258 35.31196609 -1.48041715 39.62065881 -2 44 C-4.45988335 40.28179171 -4.105352 36.82015281 -3.75 32.5625 C-3.6991626 31.85746338 -3.6483252 31.15242676 -3.59594727 30.42602539 C-3.15653763 24.8271775 -2.3383409 19.31896655 -1.40625 13.78125 C-0.92086503 10.45822984 -0.92872535 7.34990833 -1 4 C-0.5 1.5625 -0.5 1.5625 0 0 Z M2 24 C4 25 4 25 4 25 Z " fill="#FCF5EA" transform="translate(84,196)"/>
<path d="M0 0 C0.66 0 1.32 0 2 0 C2 0.99 2 1.98 2 3 C2.66 3 3.32 3 4 3 C4 4.32 4 5.64 4 7 C4.66 7 5.32 7 6 7 C6.268125 8.175625 6.53625 9.35125 6.8125 10.5625 C8.14956377 15.87309132 9.57730325 21.41972168 14 25 C13.67 25.99 13.34 26.98 13 28 C15.475 28.99 15.475 28.99 18 30 C17.79375 30.61875 17.5875 31.2375 17.375 31.875 C17.25125 32.57625 17.1275 33.2775 17 34 C17.66 34.66 18.32 35.32 19 36 C18.625 39.625 18.625 39.625 18 43 C16 42 16 42 15.0703125 39.55859375 C14.75835937 38.52863281 14.44640625 37.49867188 14.125 36.4375 C12.80614828 32.08750588 11.15243375 28.22816343 9.08349609 24.20629883 C7.07240446 20.11115797 5.43060224 15.86385231 3.75 11.625 C3.38648438 10.72394531 3.02296875 9.82289063 2.6484375 8.89453125 C2.13410156 7.60482422 2.13410156 7.60482422 1.609375 6.2890625 C1.29967773 5.51256348 0.98998047 4.73606445 0.67089844 3.93603516 C0 2 0 2 0 0 Z " fill="#FEE9DB" transform="translate(167,150)"/>
<path d="M0 0 C0 0.66 0 1.32 0 2 C-0.66 2 -1.32 2 -2 2 C-2 1.34 -2 0.68 -2 0 C-13.88 0 -25.76 0 -38 0 C-38 0.66 -38 1.32 -38 2 C-37.34 2.33 -36.68 2.66 -36 3 C-37.28062485 4.7074998 -38.61767557 6.37373596 -40 8 C-40.66 8 -41.32 8 -42 8 C-42 9.65 -42 11.3 -42 13 C-42.66 13 -43.32 13 -44 13 C-44.12375 13.7425 -44.2475 14.485 -44.375 15.25 C-44.95486701 17.80141485 -45.73708739 19.7267573 -47 22 C-48.32256051 18.03231848 -47.29090379 16.52647582 -45.75 12.6875 C-45.09257813 11.02267578 -45.09257813 11.02267578 -44.421875 9.32421875 C-40.75770021 0.75770021 -40.75770021 0.75770021 -39 -1 C-36.53967598 -1.18484793 -34.10504496 -1.30835158 -31.640625 -1.38671875 C-30.89923279 -1.41224319 -30.15784058 -1.43776764 -29.39398193 -1.46406555 C-27.82035631 -1.51617736 -26.24663944 -1.56559161 -24.67285156 -1.61254883 C-22.27355317 -1.68677138 -19.87525219 -1.77754801 -17.4765625 -1.86914062 C-15.94794883 -1.91769015 -14.41930327 -1.96524774 -12.890625 -2.01171875 C-12.17585999 -2.04077805 -11.46109497 -2.06983734 -10.72467041 -2.09977722 C-6.66713885 -2.20131509 -3.64644835 -1.81568286 0 0 Z " fill="#FDEADB" transform="translate(173,194)"/>
<path d="M0 0 C4.15153964 3.41019328 6.53086442 7.88055823 8 13 C7.60546875 15.28125 7.60546875 15.28125 7 17 C5.25559202 17.55941359 3.50414743 18.09691897 1.75 18.625 C0.77546875 18.92664063 -0.1990625 19.22828125 -1.203125 19.5390625 C-4 20 -4 20 -6.27734375 19.23828125 C-8.69270933 17.50206608 -9.23948412 15.83465011 -10 13 C-9.67 12.01 -9.34 11.02 -9 10 C-8.01 11.32 -7.02 12.64 -6 14 C-4.68 13.34 -3.36 12.68 -2 12 C-2 15 -2 15 -3 17 C-1.35 17 0.3 17 2 17 C2.33 16.01 2.66 15.02 3 14 C3.66 13.67 4.32 13.34 5 13 C4.67 11.02 4.34 9.04 4 7 C3.01 6.67 2.02 6.34 1 6 C0.67 4.02 0.34 2.04 0 0 Z " fill="#FDEEE3" transform="translate(335,124)"/>
<path d="M0 0 C4.21675877 2.56017497 5.72455851 5.75250922 8 10 C8.99 11.485 8.99 11.485 10 13 C10.8125 15.5 10.8125 15.5 11 18 C9.5625 19.8125 9.5625 19.8125 8 21 C7.01 20.67 6.02 20.34 5 20 C2.66700175 19.96045766 0.33291811 19.95598268 -2 20 C-2 19.67 -2 19.34 -2 19 C-1.15115234 18.80083984 -1.15115234 18.80083984 -0.28515625 18.59765625 C0.81505859 18.33275391 0.81505859 18.33275391 1.9375 18.0625 C2.66839844 17.88847656 3.39929688 17.71445313 4.15234375 17.53515625 C5.99969898 17.16112431 5.99969898 17.16112431 7 16 C5.38304888 10.47160472 5.38304888 10.47160472 1.9375 6.0625 C-2.30093736 4.52944819 -6.52123094 4.25220253 -11 4 C-9.7265625 2.5078125 -9.7265625 2.5078125 -8 1 C-4.375 0.875 -4.375 0.875 -1 1 C-0.67 0.67 -0.34 0.34 0 0 Z " fill="#FCEEE3" transform="translate(394,147)"/>
<path d="M0 0 C3.14865744 3.62142883 4.56853221 7.62133157 6.1875 12.0625 C6.46013672 12.78244141 6.73277344 13.50238281 7.01367188 14.24414062 C8.1408185 17.28658902 9 19.72988458 9 23 C-0.9 23 -10.8 23 -21 23 C-21.33 22.34 -21.66 21.68 -22 21 C-21.06421005 18.64018187 -20.06652192 16.30368736 -19 14 C-18.67 14 -18.34 14 -18 14 C-17.61866701 15.9914056 -17.28674418 17.99279077 -17 20 C-17.33 20.33 -17.66 20.66 -18 21 C-9.75 21 -1.5 21 7 21 C5.18664073 16.25821624 5.18664073 16.25821624 2 13 C2.33 12.34 2.66 11.68 3 11 C2.4551251 9.0930138 2.4551251 9.0930138 1.5625 7.0625 C0.44289146 4.37644364 0 2.97668615 0 0 Z " fill="#FDE8DB" transform="translate(159,161)"/>
<path d="M0 0 C0.99 0.33 1.98 0.66 3 1 C3.02705729 2.77074917 3.04642195 4.54161711 3.0625 6.3125 C3.07410156 7.29863281 3.08570313 8.28476563 3.09765625 9.30078125 C3 12 3 12 2 15 C1.984115 16.99383492 2.03364099 18.98848932 2.12109375 20.98046875 C2.16943359 22.14384766 2.21777344 23.30722656 2.26757812 24.50585938 C2.32365234 25.72080078 2.37972656 26.93574219 2.4375 28.1875 C2.48970703 29.41404297 2.54191406 30.64058594 2.59570312 31.90429688 C2.72548401 34.93645018 2.86045431 37.96828294 3 41 C1.515 41.495 1.515 41.495 0 42 C0 28.14 0 14.28 0 0 Z " fill="#FEE5D8" transform="translate(609,131)"/>
<path d="M0 0 C3.125 0.375 3.125 0.375 6 1 C5.38125 1.20625 4.7625 1.4125 4.125 1.625 C1.15346355 3.54775888 0.86975341 5.66594527 0 9 C-0.99 9 -1.98 9 -3 9 C-3 12.63 -3 16.26 -3 20 C-6.68890899 21.22963633 -10.13699206 21.55670401 -14 22 C-13.2575 21.29875 -12.515 20.5975 -11.75 19.875 C-7.06479843 14.97683472 -4.5722808 10.39118302 -2.7109375 3.953125 C-2 2 -2 2 0 0 Z " fill="#FDEFE6" transform="translate(331,175)"/>
<path d="M0 0 C0.33 0 0.66 0 1 0 C1.93559742 4.08544208 2.25912614 8.06911792 2.5 12.25 C2.84634032 17.8629122 3.31463798 23.41919497 4 29 C3.34 29.33 2.68 29.66 2 30 C2 29.01 2 28.02 2 27 C1.34 26.67 0.68 26.34 0 26 C0.33 24.35 0.66 22.7 1 21 C-0.32 21 -1.64 21 -3 21 C-3 18.03 -3 15.06 -3 12 C-2.34 11.67 -1.68 11.34 -1 11 C-0.5316735 8.41394668 -0.5316735 8.41394668 -0.375 5.4375 C-0.30023438 4.42558594 -0.22546875 3.41367188 -0.1484375 2.37109375 C-0.09945312 1.58863281 -0.05046875 0.80617187 0 0 Z " fill="#FCEFE7" transform="translate(219,201)"/>
<path d="M0 0 C1.32 0 2.64 0 4 0 C2.78995454 3.63013639 1.96377988 3.87693578 -1.3125 5.625 C-2.09238281 6.05039063 -2.87226563 6.47578125 -3.67578125 6.9140625 C-8.65961976 9.24264587 -13.4045782 9.2148551 -18.8125 9.25 C-19.59431641 9.270625 -20.37613281 9.29125 -21.18164062 9.3125 C-26.55135322 9.3483878 -30.20635808 8.43202127 -35 6 C-34.34 5.67 -33.68 5.34 -33 5 C-32.34 5.33 -31.68 5.66 -31 6 C-29.30684623 6.09630516 -27.60995168 6.13075045 -25.9140625 6.1328125 C-24.39425781 6.13474609 -24.39425781 6.13474609 -22.84375 6.13671875 C-21.7815625 6.13285156 -20.719375 6.12898437 -19.625 6.125 C-18.57054687 6.12886719 -17.51609375 6.13273438 -16.4296875 6.13671875 C-15.41390625 6.13542969 -14.398125 6.13414062 -13.3515625 6.1328125 C-12.42166504 6.13168457 -11.49176758 6.13055664 -10.53369141 6.12939453 C-8.207446 6.01059418 -6.22677765 5.65739229 -4 5 C-4 4.34 -4 3.68 -4 3 C-3.01 3 -2.02 3 -1 3 C-0.67 2.01 -0.34 1.02 0 0 Z " fill="#FEEADF" transform="translate(397,202)"/>
<path d="M0 0 C-1.1875 1.5625 -1.1875 1.5625 -3 3 C-5.6875 2.6875 -5.6875 2.6875 -8 2 C-8 2.99 -8 3.98 -8 5 C-8.99 5 -9.98 5 -11 5 C-11.33 5.99 -11.66 6.98 -12 8 C-12.99 7.67 -13.98 7.34 -15 7 C-15 6.34 -15 5.68 -15 5 C-15.99 5 -16.98 5 -18 5 C-18.33 5.66 -18.66 6.32 -19 7 C-19.99 7.33 -20.98 7.66 -22 8 C-22.33 8.66 -22.66 9.32 -23 10 C-23.33 10.66 -23.66 11.32 -24 12 C-24.99 12.33 -25.98 12.66 -27 13 C-25.47212434 8.6514308 -24.03193237 6.12240074 -19.94921875 3.8671875 C-13.11637371 0.86970453 -7.5100586 -0.15020117 0 0 Z " fill="#FBF3E8" transform="translate(386,139)"/>
<path d="M0 0 C0 1.98 0 3.96 0 6 C-0.804375 6.12375 -1.60875 6.2475 -2.4375 6.375 C-3.7059375 6.684375 -3.7059375 6.684375 -5 7 C-5.33 7.66 -5.66 8.32 -6 9 C-6.99 8.67 -7.98 8.34 -9 8 C-9 7.34 -9 6.68 -9 6 C-10.65 6 -12.3 6 -14 6 C-13.67 5.34 -13.34 4.68 -13 4 C-12.67 3.01 -12.34 2.02 -12 1 C-7.93631321 0.22596442 -4.13574827 -0.0984702 0 0 Z " fill="#FBFCF9" transform="translate(779,200)"/>
<path d="M0 0 C0.66 0 1.32 0 2 0 C1.95359375 0.67546875 1.9071875 1.3509375 1.859375 2.046875 C1.56405524 7.50846584 1.56405524 7.50846584 3.4375 12.5 C8.40476692 15.40766844 13.01993485 16.36916469 18.6875 15.3125 C21.90427198 14.03792997 24.94969011 12.63156111 28 11 C28.66 10.67 29.32 10.34 30 10 C29.3125 11.9375 29.3125 11.9375 28 14 C25.375 14.75 25.375 14.75 23 15 C23 15.99 23 16.98 23 18 C21.56666979 18.39063507 20.12807321 18.76198474 18.6875 19.125 C17.88699219 19.33382812 17.08648437 19.54265625 16.26171875 19.7578125 C14 20 14 20 11 18 C9.0103005 17.60986284 7.00980131 17.26797351 5 17 C5 16.34 5 15.68 5 15 C4.360625 14.690625 3.72125 14.38125 3.0625 14.0625 C1 13 1 13 0 12 C-0.07244053 9.98035801 -0.08377188 7.95832876 -0.0625 5.9375 C-0.05347656 4.83277344 -0.04445313 3.72804687 -0.03515625 2.58984375 C-0.02355469 1.73519531 -0.01195312 0.88054687 0 0 Z " fill="#FEEADD" transform="translate(367,184)"/>
<path d="M0 0 C6.11931712 7.12184354 9.076204 15.90569164 11 25 C9.125 24.4375 9.125 24.4375 7 23 C6.29508733 20.67793475 5.62787571 18.34406932 5 16 C4.01 15.34 3.02 14.68 2 14 C1.16097774 10.15448132 0.74639475 7.76081574 2 4 C1.34 4 0.68 4 0 4 C0 2.68 0 1.36 0 0 Z " fill="#FBF5E7" transform="translate(183,56)"/>
<path d="M0 0 C0.79921875 0.00644531 1.5984375 0.01289062 2.421875 0.01953125 C3.246875 0.03628906 4.071875 0.05304687 4.921875 0.0703125 C5.76234375 0.07933594 6.6028125 0.08835938 7.46875 0.09765625 C9.53658104 0.12115433 11.60426495 0.15702342 13.671875 0.1953125 C13.671875 0.5253125 13.671875 0.8553125 13.671875 1.1953125 C5.256875 1.6903125 5.256875 1.6903125 -3.328125 2.1953125 C-3.658125 3.5153125 -3.988125 4.8353125 -4.328125 6.1953125 C-5.318125 6.5253125 -6.308125 6.8553125 -7.328125 7.1953125 C-7.328125 6.5353125 -7.328125 5.8753125 -7.328125 5.1953125 C-7.88242188 5.6284375 -8.43671875 6.0615625 -9.0078125 6.5078125 C-10.09449219 7.343125 -10.09449219 7.343125 -11.203125 8.1953125 C-11.92242187 8.7521875 -12.64171875 9.3090625 -13.3828125 9.8828125 C-15.328125 11.1953125 -15.328125 11.1953125 -17.328125 11.1953125 C-17.988125 12.5153125 -18.648125 13.8353125 -19.328125 15.1953125 C-19.988125 15.1953125 -20.648125 15.1953125 -21.328125 15.1953125 C-20.998125 14.2053125 -20.668125 13.2153125 -20.328125 12.1953125 C-19.668125 12.1953125 -19.008125 12.1953125 -18.328125 12.1953125 C-17.668125 10.8753125 -17.008125 9.5553125 -16.328125 8.1953125 C-15.668125 8.1953125 -15.008125 8.1953125 -14.328125 8.1953125 C-14.328125 7.5353125 -14.328125 6.8753125 -14.328125 6.1953125 C-5.69765215 -0.08139503 -5.69765215 -0.08139503 0 0 Z " fill="#FDEEE4" transform="translate(149.328125,39.8046875)"/>
<path d="M0 0 C18.32974702 0.84530387 18.32974702 0.84530387 24 3 C25.5 5.125 25.5 5.125 26 7 C25.0409375 6.566875 25.0409375 6.566875 24.0625 6.125 C15.70813491 3.05604956 7.33742506 1.69448847 -1.265625 4.82421875 C-5.41699722 6.82860267 -9.2287154 9.36010078 -13 12 C-12.05249189 8.6038113 -11.46549003 7.28306826 -8.3984375 5.41796875 C-7.40070313 5.01191406 -6.40296875 4.60585937 -5.375 4.1875 C-4.37210937 3.76855469 -3.36921875 3.34960938 -2.3359375 2.91796875 C-1.56507813 2.61503906 -0.79421875 2.31210938 0 2 C0 1.34 0 0.68 0 0 Z " fill="#FEEBE3" transform="translate(293,120)"/>
<path d="M0 0 C1.98836084 2.98254126 2.34336635 4.13808808 2.6875 7.5625 C2.77386719 8.34753906 2.86023438 9.13257812 2.94921875 9.94140625 C3 12 3 12 2 14 C3.60681641 13.98259766 3.60681641 13.98259766 5.24609375 13.96484375 C6.64322743 13.95546701 8.04036299 13.94636669 9.4375 13.9375 C10.14455078 13.92912109 10.85160156 13.92074219 11.58007812 13.91210938 C13.38693559 13.90346412 15.19387603 13.94779989 17 14 C18.94090826 15.94090826 18.39919435 19.47293902 18.5625 22.0625 C18.68818359 23.99802734 18.68818359 23.99802734 18.81640625 25.97265625 C18.87699219 26.97167969 18.93757813 27.97070312 19 29 C15.10940919 25.72210066 15.10940919 25.72210066 14.609375 22.421875 C14.73958333 19.94791667 14.86979167 17.47395833 15 15 C10.05 15 5.1 15 0 15 C0 10.05 0 5.1 0 0 Z " fill="#FEE8D9" transform="translate(193,82)"/>
<path d="M0 0 C0.33 0 0.66 0 1 0 C1.01458252 1.21993652 1.02916504 2.43987305 1.04418945 3.69677734 C1.10256927 8.26314243 1.17979696 12.82903469 1.26245117 17.39501953 C1.29551505 19.36369092 1.32360345 21.33245289 1.34643555 23.30126953 C1.38032508 26.14654814 1.43265471 28.99101039 1.48828125 31.8359375 C1.49467117 32.70302338 1.5010611 33.57010925 1.50764465 34.46347046 C1.65472 40.70573567 2.94680369 46.11259003 5 52 C2.525 52.495 2.525 52.495 0 53 C0 52.34 0 51.68 0 51 C0.66 51 1.32 51 2 51 C1.67402832 50.39260986 1.34805664 49.78521973 1.01220703 49.15942383 C-0.4540849 44.58265491 -0.24559794 40.22508461 -0.1953125 35.44921875 C-0.1924826 34.43527542 -0.18965271 33.42133209 -0.18673706 32.37666321 C-0.17556625 29.14682073 -0.15046711 25.91725829 -0.125 22.6875 C-0.1149662 20.49414464 -0.10584105 18.30078492 -0.09765625 16.10742188 C-0.07563707 10.73818614 -0.04219023 5.36911308 0 0 Z " fill="#FEE8DB" transform="translate(415,158)"/>
<path d="M0 0 C2.97 0.495 2.97 0.495 6 1 C6.71484375 2.546875 6.71484375 2.546875 7 5 C5.94608774 7.53857885 4.86034426 9.84495527 3.5625 12.25 C3.22412109 12.8996875 2.88574219 13.549375 2.53710938 14.21875 C1.70213113 15.81814494 0.85246886 17.40985859 0 19 C-1.47784077 16.04431845 -1 13.30275826 -1 10 C-0.01 9.67 0.98 9.34 2 9 C1.67 7.35 1.34 5.7 1 4 C1.99 4 2.98 4 4 4 C4 3.34 4 2.68 4 2 C2.68 2 1.36 2 0 2 C0 1.34 0 0.68 0 0 Z " fill="#FCEEE4" transform="translate(338,177)"/>
<path d="M0 0 C0.33 0 0.66 0 1 0 C1.03758423 1.0372522 1.03758423 1.0372522 1.07592773 2.09545898 C1.19152161 5.20967866 1.31441242 8.32356789 1.4375 11.4375 C1.47681641 12.52611328 1.51613281 13.61472656 1.55664062 14.73632812 C1.59853516 15.77080078 1.64042969 16.80527344 1.68359375 17.87109375 C1.72025146 18.82943115 1.75690918 19.78776855 1.79467773 20.77514648 C1.75834424 22.97138925 1.75834424 22.97138925 3 24 C3.16796875 25.9609375 3.16796875 25.9609375 3.1875 28.375 C3.20167969 29.16648438 3.21585938 29.95796875 3.23046875 30.7734375 C3 33 3 33 1 36 C-1.32791494 32.50812758 -0.91503205 31.34064432 -0.29736328 27.3671875 C0.26010695 22.92939489 0.10253582 18.46553329 0.0625 14 C0.05798828 13.03449219 0.05347656 12.06898437 0.04882812 11.07421875 C0.03715417 8.71607911 0.02078021 6.35807398 0 4 C-0.66 3.67 -1.32 3.34 -2 3 C-1.34 3 -0.68 3 0 3 C0 2.01 0 1.02 0 0 Z " fill="#FCF0E8" transform="translate(677,113)"/>
<path d="M0 0 C0.33 0 0.66 0 1 0 C1.11547323 8.07029553 0.90041311 15.97667603 0 24 C-0.66 24 -1.32 24 -2 24 C-2.33 24.99 -2.66 25.98 -3 27 C-3.10486931 21.20888354 -2.93798703 15.73214293 -2 10 C-1.74635487 7.60793129 -1.50854453 5.21502277 -1.28125 2.8203125 C-1 1 -1 1 0 0 Z " fill="#FDEFE2" transform="translate(89,149)"/>
<path d="M0 0 C0.33 0 0.66 0 1 0 C1.50509208 2.24886238 2.00389179 4.49913869 2.5 6.75 C2.7784375 8.00296875 3.056875 9.2559375 3.34375 10.546875 C4 14 4 14 4 18 C4.66 18 5.32 18 6 18 C6.103125 18.598125 6.20625 19.19625 6.3125 19.8125 C6.83135614 22.05300235 6.83135614 22.05300235 8.4375 23.4375 C11.21880693 26.21880693 12 29.13723007 12 33 C3.66792237 23.43354049 -0.6130413 12.66952025 0 0 Z " fill="#FEE6D4" transform="translate(257,167)"/>
<path d="M0 0 C2.06828524 2.06828524 2.68067913 3.34767733 3.7265625 6.02734375 C4.190625 7.21553711 4.190625 7.21553711 4.6640625 8.42773438 C4.98117188 9.25595703 5.29828125 10.08417969 5.625 10.9375 C5.94984375 11.76185547 6.2746875 12.58621094 6.609375 13.43554688 C9 19.61802455 9 19.61802455 9 23 C13.29 23 17.58 23 22 23 C22 23.33 22 23.66 22 24 C17.38 24 12.76 24 8 24 C8 23.34 8 22.68 8 22 C7.34 21.67 6.68 21.34 6 21 C4.51009891 18.02019782 3.94342204 15.57566528 3.5 12.25 C3.335 11.1775 3.17 10.105 3 9 C2.34 8.67 1.68 8.34 1 8 C0.40644386 5.35139573 0.25790731 2.70802678 0 0 Z " fill="#FDE7DB" transform="translate(173,197)"/>
<path d="M0 0 C0.96099609 0.2165625 0.96099609 0.2165625 1.94140625 0.4375 C10.8782154 2.35538453 18.1217676 2.00072843 27 0 C23.58081142 3.78553021 21.50101491 4.7980547 16.484375 5.203125 C10.22440671 5.31043874 5.71036989 4.58582788 0 2 C0 1.34 0 0.68 0 0 Z " fill="#FEEEE0" transform="translate(289,197)"/>
<path d="M0 0 C0.5775 0.226875 1.155 0.45375 1.75 0.6875 C0.821875 1.203125 -0.10625 1.71875 -1.0625 2.25 C-3.72582994 3.98804161 -4.80351584 5.41200912 -5.9375 8.375 C-6.370625 9.468125 -6.80375 10.56125 -7.25 11.6875 C-10.63274266 12.81508089 -12.01778223 12.50500262 -15.4375 11.75 C-16.33855469 11.55535156 -17.23960937 11.36070312 -18.16796875 11.16015625 C-18.85503906 11.00417969 -19.54210937 10.84820312 -20.25 10.6875 C-21.33784335 7.37354014 -21.32262544 6.85169665 -19.8125 3.4375 C-19.296875 2.53 -18.78125 1.6225 -18.25 0.6875 C-16.64968656 3.88812687 -18.21826309 6.41021806 -19.25 9.6875 C-18.1775 9.666875 -17.105 9.64625 -16 9.625 C-13.05196101 9.67413398 -11.01595853 9.91033909 -8.25 10.6875 C-8.0025 9.429375 -7.755 8.17125 -7.5 6.875 C-6.78562669 4.03762994 -6.38269175 2.83346092 -4.375 0.625 C-2.25 -0.3125 -2.25 -0.3125 0 0 Z " fill="#FEE2D5" transform="translate(376.25,151.3125)"/>
<path d="M0 0 C0.99 0.33 1.98 0.66 3 1 C2.34 1 1.68 1 1 1 C0.773125 1.598125 0.54625 2.19625 0.3125 2.8125 C-1.33651464 5.56085774 -3.27359268 6.39211876 -6 8 C-6.33 8.99 -6.66 9.98 -7 11 C-8.65 11.33 -10.3 11.66 -12 12 C-10.67915553 6.38641099 -6.56312373 4.00405646 -2 1 C-1.34 0.67 -0.68 0.34 0 0 Z " fill="#FDF1E4" transform="translate(521,141)"/>
<path d="M0 0 C0.66 0.99 1.32 1.98 2 3 C-5.26 3 -12.52 3 -20 3 C-19.67 3.99 -19.34 4.98 -19 6 C-19.66 6 -20.32 6 -21 6 C-20.690625 7.0209375 -20.690625 7.0209375 -20.375 8.0625 C-19.89936171 11.78833331 -20.82330851 14.46992554 -22 18 C-22.33 18 -22.66 18 -23 18 C-23.05402274 15.89611431 -23.09280256 13.79183286 -23.125 11.6875 C-23.14820312 10.51574219 -23.17140625 9.34398438 -23.1953125 8.13671875 C-23 5 -23 5 -21 2 C-18.84521484 1.65942383 -18.84521484 1.65942383 -16.2109375 1.70703125 C-15.26992187 1.71669922 -14.32890625 1.72636719 -13.359375 1.73632812 C-11.88210937 1.7740332 -11.88210937 1.7740332 -10.375 1.8125 C-8.88613281 1.83280273 -8.88613281 1.83280273 -7.3671875 1.85351562 C-4.91091928 1.88894257 -2.45572715 1.93833804 0 2 C0 1.34 0 0.68 0 0 Z " fill="#FDEADE" transform="translate(115,94)"/>
<path d="M0 0 C0.99 0.495 0.99 0.495 2 1 C2 2.65 2 4.3 2 6 C2.66 6 3.32 6 4 6 C4.50838564 8.03959477 5.00633886 10.08179138 5.5 12.125 C5.7784375 13.26195313 6.056875 14.39890625 6.34375 15.5703125 C6.96453765 18.81466698 7.12006768 21.70814457 7 25 C6.34 25 5.68 25 5 25 C4.89042969 24.40574219 4.78085938 23.81148437 4.66796875 23.19921875 C3.58121967 17.51808331 2.21987257 11.99422071 0.5859375 6.4453125 C0 4 0 4 0 0 Z " fill="#FEEEDF" transform="translate(177,72)"/>
<path d="M0 0 C-2.80162592 1.89521754 -4.58735679 2.96561307 -8 3.25 C-11.9851664 4.2462916 -12.65789377 6.06379076 -14.765625 9.41015625 C-16 11 -16 11 -18.8125 11.9375 C-19.8953125 11.9684375 -19.8953125 11.9684375 -21 12 C-16.47031828 4.61829645 -12.35978094 1.82590232 -4.20703125 -0.58203125 C-2 -1 -2 -1 0 0 Z " fill="#FEEBE3" transform="translate(376,170)"/>
<path d="M0 0 C1.32 0.66 2.64 1.32 4 2 C3.01 3.485 3.01 3.485 2 5 C3.32 5.66 4.64 6.32 6 7 C5.45730469 7.32613281 4.91460938 7.65226563 4.35546875 7.98828125 C3.64003906 8.42527344 2.92460938 8.86226562 2.1875 9.3125 C1.47980469 9.74175781 0.77210938 10.17101562 0.04296875 10.61328125 C-1.88960231 11.92506467 -3.41410612 13.29403845 -5 15 C-4.45276317 11.62537285 -3.9451 9.91765 -2 7 C-1.6278958 5.67696283 -1.29369827 4.34262065 -1 3 C-0.67 2.01 -0.34 1.02 0 0 Z " fill="#FDF5F1" transform="translate(686,145)"/>
<path d="M0 0 C0.99 0 1.98 0 3 0 C3.19335938 0.71285156 3.38671875 1.42570313 3.5859375 2.16015625 C5.02412775 7.45013328 6.47852632 12.73336033 8 18 C4.62668646 15.75112431 4.1641821 14.7612037 3 11 C3 9.68 3 8.36 3 7 C2.01 6.67 1.02 6.34 0 6 C-0.33 7.65 -0.66 9.3 -1 11 C-2.41687119 6.74938644 -1.19320039 4.28148375 0 0 Z " fill="#FDEFE0" transform="translate(151,142)"/>
<path d="M0 0 C0.66 0 1.32 0 2 0 C3 1 4 2 5 3 C6.98188345 4.36011609 8.97951869 5.69791204 11 7 C10.67 8.65 10.34 10.3 10 12 C9.34 11.01 8.68 10.02 8 9 C7.34 9 6.68 9 6 9 C6 9.66 6 10.32 6 11 C5.34 11 4.68 11 4 11 C3.32880451 9.5437455 2.66318193 8.08492133 2 6.625 C1.62875 5.81289062 1.2575 5.00078125 0.875 4.1640625 C0 2 0 2 0 0 Z " fill="#FAFBF5" transform="translate(189,205)"/>
<path d="M0 0 C2 3.75 2 3.75 2 6 C2.66 6 3.32 6 4 6 C3.979375 7.2375 3.95875 8.475 3.9375 9.75 C3.93233319 12.6640825 4.06984442 15.20953327 5 18 C1.90916397 15.21824757 -0.00388409 13.07501963 -1 9 C-0.86204772 5.96504982 -0.48332105 2.99789681 0 0 Z " fill="#FCEDE4" transform="translate(504,186)"/>
<path d="M0 0 C0.33 0 0.66 0 1 0 C1.41739041 2.2461009 1.80819444 4.49715484 2.1875 6.75 C2.40792969 8.00296875 2.62835938 9.2559375 2.85546875 10.546875 C3 14 3 14 1.55078125 16.453125 C1.03902344 16.96359375 0.52726563 17.4740625 0 18 C-0.33 16.35 -0.66 14.7 -1 13 C-2.32 13.33 -3.64 13.66 -5 14 C-4.6875 12.125 -4.6875 12.125 -4 10 C-3.01 9.34 -2.02 8.68 -1 8 C-0.42251197 6.03638136 -0.42251197 6.03638136 -0.3125 3.875 C-0.209375 2.59625 -0.10625 1.3175 0 0 Z " fill="#FDF1EC" transform="translate(213,135)"/>
<path d="M0 0 C2.64 0 5.28 0 8 0 C8.22134176 2.12368444 8.42670007 4.24904024 8.625 6.375 C8.74101563 7.55835938 8.85703125 8.74171875 8.9765625 9.9609375 C8.98429688 10.96382812 8.99203125 11.96671875 9 13 C8.34 13.66 7.68 14.32 7 15 C6.896875 15.66 6.79375 16.32 6.6875 17 C6.460625 17.66 6.23375 18.32 6 19 C3.45703125 20.125 3.45703125 20.125 1 21 C1.34933594 20.39414063 1.69867187 19.78828125 2.05859375 19.1640625 C5.38124943 13.04585798 6.83717448 7.9570902 7 1 C4.69 1.33 2.38 1.66 0 2 C0 1.34 0 0.68 0 0 Z " fill="#FEEADB" transform="translate(779,175)"/>
<path d="M0 0 C1.11375 0.2475 1.11375 0.2475 2.25 0.5 C4.96570908 1.1786582 4.96570908 1.1786582 7.5 0.4375 C10.59709093 -0.10449091 12.21557465 0.64756483 15 2 C15 2.99 15 3.98 15 5 C14.03900391 4.87431641 14.03900391 4.87431641 13.05859375 4.74609375 C7.76924686 4.12335395 3.22954501 3.97682815 -2 5 C-1.125 1.125 -1.125 1.125 0 0 Z " fill="#FEEFE9" transform="translate(149,50)"/>
<path d="M0 0 C0.66 0.33 1.32 0.66 2 1 C2 3.31 2 5.62 2 8 C-6.08200673 10.69400224 -13.48821901 11.25924206 -22 11 C-22 10.67 -22 10.34 -22 10 C-21.44538086 9.91435791 -20.89076172 9.82871582 -20.31933594 9.74047852 C-17.79592464 9.34972442 -15.27296253 8.95614074 -12.75 8.5625 C-11.87730469 8.42779297 -11.00460937 8.29308594 -10.10546875 8.15429688 C-9.26113281 8.02216797 -8.41679688 7.89003906 -7.546875 7.75390625 C-6.77182617 7.63345947 -5.99677734 7.5130127 -5.19824219 7.38891602 C-3.10003354 7.01769807 -1.05956248 6.54360962 1 6 C0.67 4.02 0.34 2.04 0 0 Z " fill="#FDE9DD" transform="translate(785,158)"/>
<path d="M0 0 C0 0.66 0 1.32 0 2 C-1.175625 2.0928125 -1.175625 2.0928125 -2.375 2.1875 C-3.24125 2.455625 -4.1075 2.72375 -5 3 C-6.16953416 5.42383077 -6.16953416 5.42383077 -7 8 C-10 10 -10 10 -12 10 C-12.33 10.99 -12.66 11.98 -13 13 C-13.66 13 -14.32 13 -15 13 C-13.57696612 7.78220912 -10.0699042 4.37194736 -6 1 C-3 0 -3 0 0 0 Z " fill="#FDECDF" transform="translate(520,171)"/>
<path d="M0 0 C0.66 0.66 1.32 1.32 2 2 C1.625 4.625 1.625 4.625 1 7 C0.43152344 6.7834375 -0.13695312 6.566875 -0.72265625 6.34375 C-5.7242219 4.54018042 -9.68962036 3.6610396 -15 4 C-15 3.34 -15 2.68 -15 2 C-14.16855469 1.93941406 -13.33710937 1.87882813 -12.48046875 1.81640625 C-10.85044922 1.69072266 -10.85044922 1.69072266 -9.1875 1.5625 C-8.10855469 1.48128906 -7.02960937 1.40007812 -5.91796875 1.31640625 C-2.94010095 1.09787539 -2.94010095 1.09787539 0 0 Z " fill="#FEEDE6" transform="translate(781,147)"/>
<path d="M0 0 C2.475 0.495 2.475 0.495 5 1 C4.79375 1.61875 4.5875 2.2375 4.375 2.875 C4.25125 3.57625 4.1275 4.2775 4 5 C4.66 5.66 5.32 6.32 6 7 C5.625 10.625 5.625 10.625 5 14 C1.99174436 12.49587218 1.69337029 10.13951699 0.59765625 7.078125 C-0.10104707 4.64864679 -0.23571669 2.51431136 0 0 Z " fill="#FCF2E5" transform="translate(180,179)"/>
<path d="M0 0 C0 0.66 0 1.32 0 2 C-0.99 2 -1.98 2 -3 2 C-3.66 4.31 -4.32 6.62 -5 9 C-7.31 9.33 -9.62 9.66 -12 10 C-5.39622642 0 -5.39622642 0 0 0 Z " fill="#FCF1E2" transform="translate(752,171)"/>
<path d="M0 0 C0.66 0 1.32 0 2 0 C2 4.95 2 9.9 2 15 C2.99 15.33 3.98 15.66 5 16 C4.01 16.66 3.02 17.32 2 18 C1.34 17.67 0.68 17.34 0 17 C0 11.39 0 5.78 0 0 Z " fill="#FEE8DC" transform="translate(433,194)"/>
<path d="M0 0 C-0.33 0.99 -0.66 1.98 -1 3 C-1.99 3 -2.98 3 -4 3 C-4.33 3.66 -4.66 4.32 -5 5 C-8.96 5 -12.92 5 -17 5 C-17 4.67 -17 4.34 -17 4 C-14.7988116 3.26627053 -12.59745012 2.53321185 -10.39453125 1.8046875 C-8.44077065 1.14812195 -6.49953686 0.45437704 -4.5625 -0.25 C-2 -1 -2 -1 0 0 Z " fill="#FDEFEA" transform="translate(784,196)"/>
<path d="M0 0 C0.33 0 0.66 0 1 0 C1.82898392 6.2237562 2.215498 11.81201021 1 18 C0.34 18.66 -0.32 19.32 -1 20 C-2.26292231 15.50960957 -1.70855522 11.52450921 -1 7 C-0.81134383 5.66682976 -0.62375911 4.33350724 -0.4375 3 C-0.293125 2.01 -0.14875 1.02 0 0 Z " fill="#FEE7DE" transform="translate(84,196)"/>
<path d="M0 0 C1 3 1 3 1.25 6.4375 C1.69502983 10.0930817 1.69502983 10.0930817 4.25 12.375 C6.94257098 13.96606467 8.91482939 14.64740907 12 15 C12 15.33 12 15.66 12 16 C7.68009694 16.43199031 5.4144389 16.22605758 1.5625 14.125 C-0.48126208 12.24430404 -0.95955099 11.25125056 -1.40625 8.4765625 C-1.43543135 5.9304893 -1.36857592 3.51937972 -1 1 C-0.67 0.67 -0.34 0.34 0 0 Z " fill="#FEEED8" transform="translate(752,185)"/>
<path d="M0 0 C-3.89638658 3.89638658 -11.00137345 3.84033935 -16.34765625 4.125 C-17.89899715 4.125 -19.45025924 4.07044276 -21 4 C-14.31606277 -0.45595815 -7.79254816 -0.25364533 0 0 Z " fill="#FEEAD9" transform="translate(545,177)"/>
<path d="M0 0 C0.33 0 0.66 0 1 0 C3.29341084 6.88023251 2.79908771 10.46879535 0 17 C-0.66 17 -1.32 17 -2 17 C-1.85786703 15.10388566 -1.71113093 13.20811606 -1.5625 11.3125 C-1.48128906 10.25675781 -1.40007812 9.20101562 -1.31640625 8.11328125 C-1.03548319 5.34913703 -0.59843148 2.71054259 0 0 Z " fill="#FDEFE0" transform="translate(90,130)"/>
<path d="M0 0 C0.33 0 0.66 0 1 0 C1.28875 1.0725 1.5775 2.145 1.875 3.25 C2.76711698 6.82316966 2.76711698 6.82316966 4.25 9 C5.47124952 12.25666539 4.09732008 14.82996421 3 18 C2.67 18 2.34 18 2 18 C2 15.69 2 13.38 2 11 C1.34 11 0.68 11 0 11 C0 7.37 0 3.74 0 0 Z " fill="#FDF0E6" transform="translate(256,156)"/>
<path d="M0 0 C3.03087516 3.43904459 4.00898518 6.86104826 5.1875 11.25 C5.53167969 12.51328125 5.87585938 13.7765625 6.23046875 15.078125 C6.48441406 16.04234375 6.73835937 17.0065625 7 18 C5.07421875 17.19140625 5.07421875 17.19140625 3 16 C0.98725432 10.80923483 0.4757378 5.52106237 0 0 Z " fill="#FDEBD8" transform="translate(187,63)"/>
<path d="M0 0 C0.33 1.65 0.66 3.3 1 5 C0.0925 4.814375 -0.815 4.62875 -1.75 4.4375 C-4.68314324 4.04265379 -6.2644657 4.05308428 -9 5 C-8.67 3.68 -8.34 2.36 -8 1 C-5.23735711 0.40267181 -2.83967231 0 0 0 Z " fill="#FBF6E7" transform="translate(585,111)"/>
<path d="M0 0 C0.33 0.66 0.66 1.32 1 2 C-0.11621939 5.10746504 -1.5902209 8.00955949 -3 11 C0.3 11 3.6 11 7 11 C7 11.33 7 11.66 7 12 C3.37 12.33 -0.26 12.66 -4 13 C-4.33 11.35 -4.66 9.7 -5 8 C-4.34 8 -3.68 8 -3 8 C-2.87625 6.865625 -2.7525 5.73125 -2.625 4.5625 C-2.41875 3.386875 -2.2125 2.21125 -2 1 C-1.34 0.67 -0.68 0.34 0 0 Z " fill="#FEEBE3" transform="translate(114,209)"/>
<path d="M0 0 C0.33 0 0.66 0 1 0 C1.12117187 0.71285156 1.24234375 1.42570313 1.3671875 2.16015625 C2.31063969 7.55234841 3.37362209 12.77235672 5 18 C1.34060014 14.70654012 -0.78141035 11.95936762 -1.15234375 6.9375 C-1.18415815 4.95793761 -1.09886739 2.97734789 -1 1 C-0.67 0.67 -0.34 0.34 0 0 Z " fill="#FEECE1" transform="translate(738,186)"/>
<path d="M0 0 C0.33 0 0.66 0 1 0 C1.33 8.58 1.66 17.16 2 26 C1.01 26.33 0.02 26.66 -1 27 C-0.67 18.09 -0.34 9.18 0 0 Z " fill="#FEF0E9" transform="translate(610,146)"/>
<path d="M0 0 C2 3 2 3 3 6 C2.04060332 7.69036558 1.03357147 9.35394174 0 11 C-0.350625 12.0725 -0.70125 13.145 -1.0625 14.25 C-2 17 -2 17 -4 18 C-3.69255859 16.93072266 -3.69255859 16.93072266 -3.37890625 15.83984375 C-1.89379353 10.56023251 -0.60587654 5.45288884 0 0 Z " fill="#FEECE0" transform="translate(402,176)"/>
<path d="M0 0 C2 3 2 3 1.64453125 5.2265625 C1.23267578 6.41378906 1.23267578 6.41378906 0.8125 7.625 C0.55082031 8.42164063 0.28914062 9.21828125 0.01953125 10.0390625 C-1 12 -1 12 -4 13 C-4.33 12.34 -4.66 11.68 -5 11 C-4.00390625 8.3984375 -4.00390625 8.3984375 -2.5625 5.375 C-2.08941406 4.37210938 -1.61632812 3.36921875 -1.12890625 2.3359375 C-0.75636719 1.56507813 -0.38382813 0.79421875 0 0 Z " fill="#FDF0DE" transform="translate(148,154)"/>
<path d="M0 0 C1.8125 0.5 1.8125 0.5 4 2 C5.26152609 4.5863924 6.15643045 7.25200829 7 10 C6.34 10.66 5.68 11.32 5 12 C3.9375 10.125 3.9375 10.125 3 8 C3.33 7.34 3.66 6.68 4 6 C2.68 5.34 1.36 4.68 0 4 C0 2.68 0 1.36 0 0 Z " fill="#FEEEE7" transform="translate(409,146)"/>
<path d="M0 0 C2.25071906 0.0872605 4.50063388 0.19544115 6.75 0.3125 C8.62945313 0.39951172 8.62945313 0.39951172 10.546875 0.48828125 C14.03076463 1.00455901 15.47889796 1.6253256 18 4 C4.77444988 2.89394866 4.77444988 2.89394866 1 2 C0.67 1.34 0.34 0.68 0 0 Z " fill="#FBE7DB" transform="translate(772,139)"/>
<path d="M0 0 C2.67927341 4.01891012 2.15601248 6.24161923 2 11 C-0.70879335 12.35439668 -3.00933268 12.06501451 -6 12 C-5.34 11.34 -4.68 10.68 -4 10 C-3.34 9.01 -2.68 8.02 -2 7 C-1.34 7 -0.68 7 0 7 C0 4.69 0 2.38 0 0 Z " fill="#FEEFE8" transform="translate(222,232)"/>
<path d="M0 0 C2 2 2 2 3 7 C-1.95 7 -6.9 7 -12 7 C-12.33 6.01 -12.66 5.02 -13 4 C-12.01 4 -11.02 4 -10 4 C-10 4.66 -10 5.32 -10 6 C-6.7 5.67 -3.4 5.34 0 5 C0 3.35 0 1.7 0 0 Z " fill="#FCDDCD" transform="translate(801,204)"/>
<path d="M0 0 C4.43458973 1.3937282 6.87378374 3.60582235 10 7 C8.02 7.33 6.04 7.66 4 8 C4 7.01 4 6.02 4 5 C3.34 4.67 2.68 4.34 2 4 C0.875 1.9375 0.875 1.9375 0 0 Z " fill="#FBECE2" transform="translate(167,42)"/>
<path d="M0 0 C0.33 0.66 0.66 1.32 1 2 C1.66 2 2.32 2 3 2 C3.33 5.96 3.66 9.92 4 14 C0 10 0 10 -0.390625 7.421875 C-0.34421875 6.54015625 -0.2978125 5.6584375 -0.25 4.75 C-0.21390625 3.85796875 -0.1778125 2.9659375 -0.140625 2.046875 C-0.09421875 1.37140625 -0.0478125 0.6959375 0 0 Z " fill="#FEF0E6" transform="translate(208,97)"/>
<path d="M0 0 C0.66 0.99 1.32 1.98 2 3 C0.6875 4.5 0.6875 4.5 -1 6 C-1.99 6 -2.98 6 -4 6 C-4 5.34 -4 4.68 -4 4 C-4.66 4 -5.32 4 -6 4 C-6 3.34 -6 2.68 -6 2 C-4.02 1.34 -2.04 0.68 0 0 Z " fill="#FCF1E8" transform="translate(527,168)"/>
<path d="M0 0 C0.33 0 0.66 0 1 0 C1.35050464 5.841744 1.16727335 9.8531808 -2 15 C-3.23922223 11.28233332 -2.57018942 9.56110463 -1.5625 5.8125 C-1.13130859 4.18248047 -1.13130859 4.18248047 -0.69140625 2.51953125 C-0.46324219 1.68808594 -0.23507813 0.85664062 0 0 Z " fill="#FEECD9" transform="translate(118,75)"/>
<path d="M0 0 C3.45197673 -0.39451163 4.7017938 -0.21819966 7.5625 1.875 C8.366875 2.57625 9.17125 3.2775 10 4 C11.31138904 4.70885894 12.63777017 5.39456452 14 6 C8.29290936 5.53411505 4.84060277 4.06242216 0 1 C0 0.67 0 0.34 0 0 Z " fill="#FEE7DB" transform="translate(276,205)"/>
<path d="M0 0 C0.33 0 0.66 0 1 0 C0.93489583 2.01822917 0.86979167 4.03645833 0.8046875 6.0546875 C0.81668311 8.23863645 0.81668311 8.23863645 3 10 C2.67 10.66 2.34 11.32 2 12 C1.34 12 0.68 12 0 12 C0 11.34 0 10.68 0 10 C-0.66 10 -1.32 10 -2 10 C-1.34 6.7 -0.68 3.4 0 0 Z " fill="#FDF2E5" transform="translate(258,144)"/>
<path d="M0 0 C0.66 0.33 1.32 0.66 2 1 C2 2.32 2 3.64 2 5 C-1.96 4.67 -5.92 4.34 -10 4 C-9.67 3.34 -9.34 2.68 -9 2 C-6.03 2.495 -6.03 2.495 -3 3 C-2.67 2.34 -2.34 1.68 -2 1 C-1.34 0.67 -0.68 0.34 0 0 Z " fill="#FCF3EC" transform="translate(702,147)"/>
<path d="M0 0 C-1.64811941 2.00503699 -2.45853942 2.93307791 -5.0859375 3.2578125 C-6.21902344 3.19207031 -6.21902344 3.19207031 -7.375 3.125 C-10.76081151 3.00348637 -13.69279974 3.14652897 -17 4 C-11.95178125 -0.46573197 -6.47323485 -0.1294647 0 0 Z " fill="#FEE8E0" transform="translate(386,139)"/>
<path d="M0 0 C0 3.55157911 -0.99418238 5.48763755 -2.5 8.6875 C-3.19609375 10.17830078 -3.19609375 10.17830078 -3.90625 11.69921875 C-4.2671875 12.45847656 -4.628125 13.21773437 -5 14 C-5.33 14 -5.66 14 -6 14 C-5.125 6.25 -5.125 6.25 -4 4 C-3.34 4 -2.68 4 -2 4 C-1.34 2.68 -0.68 1.36 0 0 Z " fill="#FEEADD" transform="translate(279,132)"/>
<path d="M0 0 C-0.928125 0.804375 -0.928125 0.804375 -1.875 1.625 C-4.20543253 3.91343409 -4.20543253 3.91343409 -5.0625 7.1875 C-5.5265625 8.5796875 -5.5265625 8.5796875 -6 10 C-6.99 10.33 -7.98 10.66 -9 11 C-9.66 10.34 -10.32 9.68 -11 9 C-9.68 9 -8.36 9 -7 9 C-6.9175 7.72125 -6.835 6.4425 -6.75 5.125 C-6.27313965 1.22027391 -6.27313965 1.22027391 -4.0625 -0.5625 C-2 -1 -2 -1 0 0 Z " fill="#FEE6D4" transform="translate(526,153)"/>
<path d="M0 0 C1.65 0.99 3.3 1.98 5 3 C4 6 4 6 2 7 C1.67 7.66 1.34 8.32 1 9 C-0.61949011 6.42786866 -1.04408751 5.32330841 -0.625 2.25 C-0.41875 1.5075 -0.2125 0.765 0 0 Z " fill="#FCF0E7" transform="translate(577,117)"/>
<path d="M0 0 C0.8971875 0.309375 0.8971875 0.309375 1.8125 0.625 C0.389375 1.4603125 0.389375 1.4603125 -1.0625 2.3125 C-4.27628787 4.69070302 -5.14315118 5.86534426 -6.1875 9.625 C-6.8475 9.295 -7.5075 8.965 -8.1875 8.625 C-4.53125 -0.77678571 -4.53125 -0.77678571 0 0 Z " fill="#FDE9DF" transform="translate(376.1875,151.375)"/>
<path d="M0 0 C0.66 0 1.32 0 2 0 C3.6875 1.8125 3.6875 1.8125 5 4 C4.67 4.99 4.34 5.98 4 7 C4.66 7.33 5.32 7.66 6 8 C6 8.99 6 9.98 6 11 C5.34 11 4.68 11 4 11 C3.32880451 9.5437455 2.66318193 8.08492133 2 6.625 C1.62875 5.81289062 1.2575 5.00078125 0.875 4.1640625 C0 2 0 2 0 0 Z " fill="#FDE8D7" transform="translate(189,205)"/>
<path d="M0 0 C0.33 0.66 0.66 1.32 1 2 C1.66 2.33 2.32 2.66 3 3 C3 5.64 3 8.28 3 11 C-1.13333333 4.8 -1.13333333 4.8 -0.625 1.75 C-0.41875 1.1725 -0.2125 0.595 0 0 Z " fill="#FCEFE3" transform="translate(186,193)"/>
<path d="M0 0 C0.33 0.66 0.66 1.32 1 2 C1.66 2 2.32 2 3 2 C3 2.99 3 3.98 3 5 C1.02 5.33 -0.96 5.66 -3 6 C-1.125 1.125 -1.125 1.125 0 0 Z " fill="#F7FAF0" transform="translate(170,194)"/>
<path d="M0 0 C0.66 0 1.32 0 2 0 C0.78623966 5.32187227 -0.72623708 10.03906272 -3 15 C-4.39852912 10.80441263 -2.77263136 8.95433149 -1 5 C-0.30859478 2.22111387 -0.30859478 2.22111387 0 0 Z " fill="#FDEBDC" transform="translate(141,137)"/>
<path d="M0 0 C0.33 0.99 0.66 1.98 1 3 C0.01 3.99 -0.98 4.98 -2 6 C-2 4.68 -2 3.36 -2 2 C-3.98 2.33 -5.96 2.66 -8 3 C-8 2.34 -8 1.68 -8 1 C-2.25 0 -2.25 0 0 0 Z " fill="#FCF2E8" transform="translate(554,174)"/>
<path d="M0 0 C2.625 -0.1875 2.625 -0.1875 5 0 C3.02 2.31 1.04 4.62 -1 7 C-1.33 5.68 -1.66 4.36 -2 3 C-1.34 2.01 -0.68 1.02 0 0 Z " fill="#FEF0E2" transform="translate(683,153)"/>
<path d="M0 0 C-1.175625 0.61875 -1.175625 0.61875 -2.375 1.25 C-5.05891656 3.0392777 -5.88098949 4.04988139 -7 7 C-8 4 -8 4 -8 1 C-2.25 -1.125 -2.25 -1.125 0 0 Z " fill="#FBEEDC" transform="translate(762,152)"/>
<path d="M0 0 C1.46067199 0.45082469 2.91848032 0.91093537 4.375 1.375 C5.18710937 1.63023438 5.99921875 1.88546875 6.8359375 2.1484375 C9 3 9 3 11 5 C7.7 4.34 4.4 3.68 1 3 C0.67 2.01 0.34 1.02 0 0 Z " fill="#FEEFDD" transform="translate(313,110)"/>
<path d="M0 0 C0.33 0.66 0.66 1.32 1 2 C4.465 1.505 4.465 1.505 8 1 C8 1.99 8 2.98 8 4 C5.69 4 3.38 4 1 4 C0.67 2.68 0.34 1.36 0 0 Z " fill="#FEECDB" transform="translate(710,207)"/>
<path d="M0 0 C1.23593891 3.70781672 0.5678132 4.67510253 -0.9375 8.1875 C-1.31777344 9.08855469 -1.69804688 9.98960937 -2.08984375 10.91796875 C-2.54037109 11.94857422 -2.54037109 11.94857422 -3 13 C-4.10096216 9.73381227 -3.9223497 7.98446051 -2.625 4.8125 C-2.34914063 4.11769531 -2.07328125 3.42289063 -1.7890625 2.70703125 C-1 1 -1 1 0 0 Z " fill="#FDE3DE" transform="translate(119,196)"/>
<path d="M0 0 C0.66 0 1.32 0 2 0 C2 1.98 2 3.96 2 6 C1.01 6.33 0.02 6.66 -1 7 C-1.04254356 5.00045254 -1.04080783 2.99958364 -1 1 C-0.67 0.67 -0.34 0.34 0 0 Z " fill="#FBF8EA" transform="translate(85,189)"/>
<path d="M0 0 C2.87529818 1.28892677 5.05008298 2.49296383 7 5 C7.6875 7.6875 7.6875 7.6875 8 10 C4.74475735 6.97727468 2.38179263 3.74281699 0 0 Z " fill="#FDEBD9" transform="translate(167,57)"/>
<path d="M0 0 C1.32 0.33 2.64 0.66 4 1 C1.69 3.31 -0.62 5.62 -3 8 C-3 4.42424104 -1.91159393 2.94704065 0 0 Z " fill="#FEE8DD" transform="translate(142,55)"/>
<path d="M0 0 C1.65 0 3.3 0 5 0 C4.34 1.98 3.68 3.96 3 6 C2.01 5.34 1.02 4.68 0 4 C0 2.68 0 1.36 0 0 Z " fill="#FAFAF1" transform="translate(144,50)"/>
<path d="M0 0 C2.09749995 2.35968744 2.96905704 3.54616994 3.1875 6.75 C3.0946875 7.86375 3.0946875 7.86375 3 9 C2.67 8.34 2.34 7.68 2 7 C1.34 7 0.68 7 0 7 C0 4.69 0 2.38 0 0 Z " fill="#F7F9F1" transform="translate(216,191)"/>
<path d="M0 0 C1.0625 1.875 1.0625 1.875 2 4 C1.67 4.66 1.34 5.32 1 6 C-1.5625 6.625 -1.5625 6.625 -4 7 C-2.68 4.69 -1.36 2.38 0 0 Z " fill="#FDE6DF" transform="translate(550,189)"/>
<path d="M0 0 C-0.66 1.65 -1.32 3.3 -2 5 C-2.33 4.34 -2.66 3.68 -3 3 C-5.31 3 -7.62 3 -10 3 C-10 2.67 -10 2.34 -10 2 C-8.7090864 1.66376204 -7.41723903 1.33110751 -6.125 1 C-5.40570312 0.814375 -4.68640625 0.62875 -3.9453125 0.4375 C-2 0 -2 0 0 0 Z " fill="#FCE7E2" transform="translate(762,168)"/>
<path d="M0 0 C3.57104439 1.87949705 5.54744301 3.17053157 7 7 C4.625 6.3125 4.625 6.3125 2 5 C0.6875 2.375 0.6875 2.375 0 0 Z " fill="#FDE6DB" transform="translate(790,143)"/>
<path d="M0 0 C2 3 2 3 2 6 C1.34 6 0.68 6 0 6 C-0.33 6.66 -0.66 7.32 -1 8 C-1.625 5.6875 -1.625 5.6875 -2 3 C-1.34 2.01 -0.68 1.02 0 0 Z " fill="#FCF4EF" transform="translate(117,87)"/>
<path d="M0 0 C0 3 0 3 0 3 Z " fill="#FFB7A4" transform="translate(874,259)"/>
</svg>
